<svg id="svg" version="1.1" xmlns="http://www.w3.org/2000/svg" xmlns:xlink="http://www.w3.org/1999/xlink" width="400" height="400" viewBox="0, 0, 400,400"><g id="svgg"><path id="path0" d="M143.708 70.422 C 137.343 71.678,134.949 74.567,129.472 87.600 C 126.110 95.601,121.648 106.244,115.888 120.000 C 113.355 126.050,107.278 140.540,102.384 152.200 C 97.490 163.860,92.815 175.020,91.995 177.000 C 91.176 178.980,83.261 197.880,74.407 219.000 C 65.553 240.120,57.177 260.100,55.795 263.400 C 54.413 266.700,51.541 273.540,49.413 278.600 C 39.214 302.858,38.853 303.995,40.303 307.275 C 41.863 310.800,42.793 311.000,57.600 311.000 C 78.004 311.000,75.944 313.014,90.124 279.200 C 94.414 268.970,102.008 250.880,107.000 239.000 C 111.993 227.120,120.761 206.240,126.485 192.600 C 132.210 178.960,139.282 162.130,142.201 155.200 C 145.120 148.270,152.230 131.350,158.001 117.600 C 163.772 103.850,169.440 90.350,170.597 87.600 C 174.631 78.014,175.036 75.208,172.762 72.618 C 170.677 70.244,169.090 69.994,156.427 70.044 C 150.362 70.068,144.639 70.238,143.708 70.422 M329.618 70.426 C 326.873 70.981,323.764 72.681,322.241 74.461 C 319.706 77.422,320.077 76.594,302.473 118.600 C 282.394 166.510,270.594 194.669,265.595 206.600 C 262.553 213.860,252.744 237.260,243.798 258.600 C 225.868 301.370,225.431 302.497,225.697 305.272 C 226.206 310.562,227.560 311.000,243.400 311.000 C 263.699 311.000,262.209 312.304,274.008 284.200 C 277.795 275.180,282.748 263.390,285.014 258.000 C 287.281 252.610,292.499 240.190,296.610 230.400 C 300.721 220.610,307.377 204.770,311.401 195.200 C 346.914 110.735,357.875 84.564,358.858 81.888 C 360.907 76.307,360.201 72.914,356.600 71.035 C 354.831 70.112,333.549 69.632,329.618 70.426 " stroke="none" fill="#07060a" fill-rule="evenodd"></path><path id="path1" d="M0.000 200.000 L 0.000 400.000 200.000 400.000 L 400.000 400.000 400.000 200.000 L 400.000 0.000 200.000 0.000 L 0.000 0.000 0.000 200.000 M169.490 70.604 C 171.986 71.346,173.979 73.406,174.044 75.314 C 174.157 78.585,173.690 80.251,170.597 87.600 C 169.440 90.350,163.772 103.850,158.001 117.600 C 152.230 131.350,145.120 148.270,142.201 155.200 C 139.282 162.130,132.210 178.960,126.485 192.600 C 120.761 206.240,111.993 227.120,107.000 239.000 C 102.008 250.880,94.414 268.970,90.124 279.200 C 75.944 313.014,78.004 311.000,57.600 311.000 C 42.793 311.000,41.863 310.800,40.303 307.275 C 38.853 303.995,39.214 302.858,49.413 278.600 C 51.541 273.540,54.413 266.700,55.795 263.400 C 57.177 260.100,65.553 240.120,74.407 219.000 C 83.261 197.880,91.176 178.980,91.995 177.000 C 92.815 175.020,97.490 163.860,102.384 152.200 C 107.278 140.540,113.355 126.050,115.888 120.000 C 121.648 106.244,126.110 95.601,129.472 87.600 C 134.949 74.567,137.343 71.678,143.708 70.422 C 146.928 69.786,167.219 69.930,169.490 70.604 M356.600 71.035 C 360.201 72.914,360.907 76.307,358.858 81.888 C 357.875 84.564,346.914 110.735,311.401 195.200 C 307.377 204.770,300.721 220.610,296.610 230.400 C 292.499 240.190,287.281 252.610,285.014 258.000 C 282.748 263.390,277.795 275.180,274.008 284.200 C 262.209 312.304,263.699 311.000,243.400 311.000 C 227.560 311.000,226.206 310.562,225.697 305.272 C 225.431 302.497,225.868 301.370,243.798 258.600 C 252.744 237.260,262.553 213.860,265.595 206.600 C 270.594 194.669,282.394 166.510,302.473 118.600 C 324.884 65.124,320.782 70.006,343.200 70.133 C 354.315 70.196,355.093 70.248,356.600 71.035 " stroke="none" fill="#9363f3" fill-rule="evenodd"></path></g></svg>